<svg width="680" height="540" viewBox="0 0 680 540" xmlns="http://www.w3.org/2000/svg">
  <g transform="translate(340, 200)">
    <path d="M0,-120 C4,-116 65,-40 65,20 C65,56 36,85 0,85 C-36,85 -65,56 -65,20 C-65,-40 -4,-116 0,-120Z" fill="#E8D5C4" stroke="#5C3D2E" stroke-width="1.5"/>
    <line x1="0" y1="60" x2="0" y2="-40" stroke="#7A8B6F" stroke-width="3" stroke-linecap="round"/>
    <path d="M0,28 C-8,18 -34,-2 -38,-22 C-38,-22 -16,-4 0,14Z" fill="#7A8B6F" opacity="0.9"/>
    <path d="M0,6 C8,-6 34,-28 40,-46 C40,-46 18,-22 0,-8Z" fill="#A3B18A" opacity="0.9"/>
    <path d="M0,-12 C-6,-20 -26,-38 -30,-54 C-30,-54 -12,-36 0,-24Z" fill="#7A8B6F" opacity="0.8"/>
    <path d="M0,-30 C4,-38 14,-54 16,-66 C16,-66 6,-48 0,-40Z" fill="#A3B18A" opacity="0.75"/>
    <path d="M0,-40 C-2,-46 -6,-58 -7,-66 C-7,-66 -1,-54 0,-46Z" fill="#7A8B6F" opacity="0.6"/>
    <ellipse cx="0" cy="70" rx="30" ry="5.5" fill="none" stroke="#A8906E" stroke-width="1.4" opacity="0.6"/>
    <ellipse cx="0" cy="71" rx="58" ry="9.5" fill="none" stroke="#A8906E" stroke-width="1.1" opacity="0.45"/>
    <ellipse cx="0" cy="72" rx="86" ry="13.5" fill="none" stroke="#A8906E" stroke-width="0.9" opacity="0.32"/>
    <ellipse cx="0" cy="73" rx="114" ry="17.5" fill="none" stroke="#A8906E" stroke-width="0.7" opacity="0.2"/>
    <ellipse cx="0" cy="74" rx="140" ry="21" fill="none" stroke="#A8906E" stroke-width="0.5" opacity="0.12"/>
  </g>

  <text x="220" y="358" font-family="'Palatino Linotype', 'Book Antiqua', Palatino, serif" font-size="44" font-weight="400" fill="#C4704B" letter-spacing="1">AI</text>
  <text x="268" y="358" font-family="'Palatino Linotype', 'Book Antiqua', Palatino, serif" font-size="44" font-weight="400" fill="#3D2B1F" letter-spacing="1">droponics</text>

  <text x="340" y="392" text-anchor="middle" font-family="'Palatino Linotype', 'Book Antiqua', Palatino, serif" font-size="13" font-weight="400" fill="#8B7D6B" letter-spacing="3">GROW SMARTER</text>

  <line x1="200" y1="387" x2="262" y2="387" stroke="#C4A882" stroke-width="0.5" opacity="0.6"/>
  <line x1="418" y1="387" x2="480" y2="387" stroke="#C4A882" stroke-width="0.5" opacity="0.6"/>
</svg>
